# xmcd
#
# Track frame offsets:
#	150
#	25740
#	42385
#	59629
#	77111
#	93407
#	108690
#	119833
#	138878
#	150716
#	172081
#	185216
#
# Disc length: 2702 seconds
#
# Revision: 0
# Processed by: cddbd v1.5.1PL0 Copyright (c) Steve Scherf et al.
# Submitted via: dBpowerAMP V4.0
#
DISCID=b00a8c0c
DTITLE=From The Hip - Closer To Home
DYEAR=2004
DGENRE=Newgrass
TTITLE0=Closer To Home
TTITLE1=Tom Cup
TTITLE2=Ode to Pecan
TTITLE3=Nolichucky
TTITLE4=Fine Time
TTITLE5=Wrong Road
TTITLE6=Blackberry Blossom
TTITLE7=John's Ghost
TTITLE8=John Hardy
TTITLE9=Chitlins and Grits
TTITLE10=Words of Whiskey
TTITLE11=Shadow Boxing
EXTD=This band is from Kingwood, West Virginia.  The album was created on Blues Alley Records.
EXTT0=
EXTT1=
EXTT2=
EXTT3=
EXTT4=
EXTT5=
EXTT6=
EXTT7=
EXTT8=
EXTT9=
EXTT10=
EXTT11=
PLAYORDER=
